<svg xmlns="http://www.w3.org/2000/svg" viewBox="0 0 420 420">
  <path style="fill:#fff" d="M295.529 77.523c-9.295 17.844-19.983 37.536-32.508 59.89 9.271 15.888 18.678 31.843 27.804 47.32q4.517 7.66 8.999 15.267h72.841c8.404-13.483 15.459-24.919 21.84-35.4-7.583-30.808-22.695-58.684-43.275-81.554a1171 1171 0 0 0-55.701-5.523M129.185 235.282c-3.017-5.118-6.012-10.201-9.005-15.282H47.337c-8.418 13.506-15.474 24.942-21.841 35.401 7.582 30.807 22.693 58.682 43.271 81.552a1170 1170 0 0 0 55.704 5.524c9.295-17.844 19.983-37.536 32.505-59.885-9.268-15.885-18.667-31.835-27.791-47.31M47.337 200h72.84c2.989-5.076 5.994-10.171 9.007-15.282 9.123-15.473 18.527-31.422 27.795-47.305-12.52-22.346-23.21-42.04-32.508-59.89a1171 1171 0 0 0-55.703 5.524c-20.578 22.87-35.689 50.745-43.272 81.553 6.38 10.479 13.436 21.915 21.841 35.4m230.911 152.594c-9.272-17.829-19.971-37.553-32.551-60.009a2528 2528 0 0 1-71.393 0c-12.575 22.448-23.275 42.175-32.551 60.009 8.79 14.805 16.87 28.735 24.552 42.325a189.8 189.8 0 0 0 43.69 5.078c15.036 0 29.666-1.764 43.702-5.08a2281 2281 0 0 1 24.551-42.323M372.663 220H299.82c-2.99 5.076-5.981 10.154-8.996 15.267-9.127 15.48-18.529 31.434-27.801 47.325 12.526 22.356 23.214 42.048 32.505 59.886a1172 1172 0 0 0 55.701-5.524c20.58-22.87 35.691-50.745 43.274-81.553-6.377-10.477-13.433-21.913-21.84-35.401M166.304 25.081c-7.682 13.591-15.762 27.521-24.552 42.325 9.281 17.844 19.984 37.577 32.561 60.027 23.717-.336 47.656-.336 71.373 0 12.58-22.457 23.284-42.189 32.561-60.027-8.79-14.805-16.87-28.734-24.551-42.323a189.8 189.8 0 0 0-43.702-5.08 189.8 189.8 0 0 0-43.69 5.078m7.978 122.354c-9.301 15.941-18.723 31.929-27.869 47.441-2.986 5.065-5.95 10.095-8.912 15.124 2.962 5.03 5.925 10.06 8.912 15.124 9.146 15.512 18.568 31.5 27.869 47.441 23.737.339 47.7.339 71.435 0 9.305-15.946 18.73-31.939 27.878-47.456 2.983-5.06 5.943-10.085 8.902-15.109-2.959-5.024-5.919-10.049-8.902-15.109-9.149-15.517-18.574-31.51-27.878-47.456a2509 2509 0 0 0-71.435 0m-36.209-113.28A190 190 0 0 0 93.29 60.177a1178 1178 0 0 1 31.106-2.708 2441 2441 0 0 0 13.677-23.314M399.396 194.86a5000 5000 0 0 1-9.399 15.14 5128 5128 0 0 1 9.399 15.14c.396-4.995.603-10.042.603-15.137a191 191 0 0 0-.603-15.143M281.929 385.842a190 190 0 0 0 44.778-26.019 1177 1177 0 0 1-31.103 2.707 2476 2476 0 0 0-13.675 23.312m13.675-328.373c10.309.759 20.697 1.664 31.101 2.708a190 190 0 0 0-44.776-26.018 2474 2474 0 0 0 13.675 23.31M20.603 225.141a5154 5154 0 0 1 9.4-15.141 5128 5128 0 0 1-9.399-15.14A192 192 0 0 0 20 210.002c0 5.096.208 10.143.603 15.139m103.793 137.391c-10.31-.759-20.7-1.665-31.107-2.709a190 190 0 0 0 44.785 26.023 2463 2463 0 0 0-13.678-23.314" />
  <path d="M415.042 164.6a10 10 0 0 0-.201-.921c-8.236-36.438-25.973-69.31-50.461-95.875a10 10 0 0 0-1.806-1.94c-26.54-28.077-60.721-48.855-99.182-58.973a10 10 0 0 0-1.192-.317c-16.697-4.287-34.189-6.57-52.205-6.57-17.992 0-35.461 2.278-52.138 6.554a10 10 0 0 0-1.256.333c-38.46 10.119-72.64 30.897-99.179 58.975a10 10 0 0 0-1.805 1.938C31.13 94.369 13.393 127.242 5.158 163.682q-.12.448-.198.906A210 210 0 0 0 0 210.002c0 15.591 1.722 30.784 4.961 45.415q.077.455.197.901c8.235 36.441 25.972 69.315 50.461 95.881.512.72 1.116 1.371 1.801 1.935 26.577 28.119 60.816 48.918 99.344 59.021q.376.118.761.206c16.777 4.331 34.359 6.637 52.47 6.637 18.116 0 35.703-2.306 52.484-6.64a10 10 0 0 0 .757-.205c38.527-10.104 72.765-30.901 99.342-59.018a10 10 0 0 0 1.801-1.935c24.49-26.566 42.228-59.44 50.464-95.881q.12-.45.198-.908a210 210 0 0 0 4.96-45.409 210 210 0 0 0-4.959-45.402M281.929 385.842a2429 2429 0 0 1 13.675-23.311 1178 1178 0 0 0 31.103-2.707 190 190 0 0 1-44.778 26.018m13.6-43.364c-9.292-17.838-19.979-37.53-32.505-59.886 9.273-15.89 18.674-31.845 27.801-47.325 3.015-5.113 6.006-10.191 8.996-15.267h72.843c8.407 13.488 15.462 24.924 21.841 35.401-7.583 30.808-22.695 58.683-43.274 81.553a1173 1173 0 0 1-55.702 5.524m-171.133 20.054a2420 2420 0 0 1 13.677 23.314 190 190 0 0 1-44.785-26.023 1180 1180 0 0 0 31.108 2.709m.076-20.055a1170 1170 0 0 1-55.704-5.524c-20.578-22.869-35.689-50.744-43.271-81.552C31.865 244.942 38.92 233.506 47.338 220h72.843c2.993 5.081 5.988 10.165 9.005 15.282 9.124 15.475 18.523 31.424 27.792 47.309-12.523 22.35-23.211 42.042-32.506 59.886m13.601-308.322a2441 2441 0 0 1-13.677 23.314c-10.311.759-20.7 1.664-31.106 2.708a190 190 0 0 1 44.783-26.022m-13.602 43.368c9.298 17.85 19.988 37.544 32.508 59.89-9.268 15.883-18.672 31.831-27.795 47.305A27851 27851 0 0 0 120.177 200h-72.84c-8.405-13.485-15.461-24.921-21.841-35.4 7.583-30.808 22.694-58.683 43.272-81.553a1171 1171 0 0 1 55.703-5.524M282.499 210c-2.959 5.024-5.919 10.05-8.902 15.109-9.149 15.516-18.574 31.51-27.878 47.456-23.736.339-47.698.339-71.435 0-9.301-15.94-18.723-31.929-27.869-47.441-2.986-5.065-5.95-10.095-8.912-15.124 2.962-5.03 5.925-10.06 8.912-15.124 9.146-15.512 18.568-31.5 27.869-47.441 23.736-.339 47.699-.339 71.435 0 9.305 15.946 18.73 31.939 27.878 47.456zm-252.496 0a5154 5154 0 0 0-9.4 15.141A192 192 0 0 1 20 210.002c0-5.097.208-10.145.604-15.142 2.951 4.773 6.068 9.794 9.399 15.14m359.995 0a4878 4878 0 0 0 9.399-15.14 192 192 0 0 1 .604 15.142c0 5.095-.208 10.142-.603 15.137a5509 5509 0 0 0-9.4-15.139m-17.334-10h-72.841q-4.48-7.607-8.999-15.267c-9.125-15.477-18.533-31.432-27.804-47.32 12.525-22.353 23.213-42.046 32.508-59.89a1171 1171 0 0 1 55.7 5.523c20.58 22.87 35.692 50.746 43.275 81.554-6.381 10.481-13.436 21.917-21.839 35.4m-77.06-142.531a2453 2453 0 0 1-13.675-23.31 190 190 0 0 1 44.776 26.018 1174 1174 0 0 0-31.101-2.708m-17.356 9.937c-9.277 17.838-19.981 37.57-32.561 60.027a2527 2527 0 0 0-71.373 0c-12.577-22.45-23.28-42.183-32.561-60.027 8.79-14.804 16.87-28.734 24.552-42.325a189.8 189.8 0 0 1 43.691-5.078c15.036 0 29.666 1.764 43.702 5.08 7.68 13.589 15.76 27.518 24.55 42.323M166.304 394.919c-7.682-13.59-15.762-27.52-24.552-42.325 9.276-17.835 19.976-37.561 32.551-60.009 23.717.336 47.678.336 71.393 0 12.58 22.456 23.279 42.181 32.551 60.009-8.784 14.795-16.864 28.724-24.551 42.323a189.8 189.8 0 0 1-43.702 5.08 189.8 189.8 0 0 1-43.69-5.078" />
</svg>
